<svg xmlns="http://www.w3.org/2000/svg" width="30.102" height="30.102" viewBox="0 0 30.102 30.102">
  <g transform="translate(0.1 0.1)">
    <g transform="translate(14.352 28.734)">
      <path d="M246.737,492.171a.584.584,0,1,0,.171.413A.588.588,0,0,0,246.737,492.171Z" transform="translate(-245.74 -492)" style="fill:#fff;stroke:#211932;stroke-width:0.2px;" />
    </g>
    <g transform="translate(0 6.158)">
      <path d="M26.781,118.381l-1.948-.465v-.773a3.854,3.854,0,0,0,1.8-3.26v-2.176a3.852,3.852,0,0,0-6.739-2.554,5.149,5.149,0,0,0-4.939-3.716h0a5.149,5.149,0,0,0-4.942,3.726,3.852,3.852,0,0,0-6.748,2.543v2.176a3.854,3.854,0,0,0,1.8,3.26v.773l-1.948.465A4.052,4.052,0,0,0,0,122.335v3.926a.584.584,0,0,0,.584.584h4.67V128.6a.584.584,0,0,0,.584.584h6.407a.584.584,0,0,0,0-1.168H9.638v-2.57a.584.584,0,0,0-1.168,0v2.57H6.422v-2.635a4.252,4.252,0,0,1,3.271-4.148l2.872-.688,1.848,4.2a.584.584,0,0,0,.535.349h0a.584.584,0,0,0,.535-.349l1.846-4.2,2.864.684a4.251,4.251,0,0,1,3.274,4.149v.652a.585.585,0,0,0,0,.457v1.524H21.432v-2.57a.584.584,0,0,0-1.168,0v2.57H17.4a.584.584,0,0,0,0,1.168h6.648a.584.584,0,0,0,.584-.584v-1.752h4.682a.584.584,0,0,0,.584-.584v-3.926A4.052,4.052,0,0,0,26.781,118.381Zm-4-9.361a2.69,2.69,0,0,1,2.687,2.687v.2H23.8a7.216,7.216,0,0,1-3.595-.959A2.692,2.692,0,0,1,22.78,109.02Zm-2.687,4.768c0-.06,0-1.57,0-1.57a8.384,8.384,0,0,0,3.7.861h1.67v.805a2.687,2.687,0,0,1-5.373,0v-.1Zm-9.108-3.211a3.972,3.972,0,0,1,7.943,0v.076l-2.168-1.273a.584.584,0,0,0-.743.128,4.411,4.411,0,0,1-3.389,1.581H10.986Zm-6.55,1.275v-.145A2.687,2.687,0,0,1,9.7,110.95a7.217,7.217,0,0,1-3.595.959H4.436Zm0,2.032v-.805h1.67a8.384,8.384,0,0,0,3.7-.862v1.667a2.687,2.687,0,0,1-5.373,0Zm.818,11.5v.3H3.5v-2.595a.584.584,0,1,0-1.168,0v2.595H1.168v-3.342a2.888,2.888,0,0,1,2.224-2.818l1.851-.442,1.208,2.894A5.422,5.422,0,0,0,5.254,125.378Zm1.868-4.835-.887-2.125c0-.014,0-.028,0-.042v-.743a3.829,3.829,0,0,0,1.766,0v.7c0,.011,0,.022,0,.033s0,.037,0,.055Zm2.3-.449a5.49,5.49,0,0,0-.987.339L9,119.072l1.852.444a2.891,2.891,0,0,1,.419.135Zm2.9-1.217a4.055,4.055,0,0,0-1.194-.5l-1.955-.468v-.766a3.882,3.882,0,0,0,1.207-1.2,5.177,5.177,0,0,0,1.942,2.076Zm4.087.867-1.458,3.316-1.461-3.323v-1.2a5.144,5.144,0,0,0,2.919.005Zm-1.45-2.165a3.976,3.976,0,0,1-3.972-3.971v-1.351h1.643a5.574,5.574,0,0,0,3.947-1.632l2.349,1.38v1.74A3.976,3.976,0,0,1,14.957,117.579Zm2.618.449h0a5.176,5.176,0,0,0,1.955-2.077,3.885,3.885,0,0,0,1.2,1.193v.766l-1.955.468a4.057,4.057,0,0,0-1.2.5v-.853Zm2.89,2.068-1.847-.441a2.9,2.9,0,0,1,.43-.14l1.847-.443.571,1.368A5.49,5.49,0,0,0,20.465,120.1Zm1.43-1.66a.584.584,0,0,0,0-.064c0-.005,0-.011,0-.016v-.721a3.828,3.828,0,0,0,1.766,0v.743c0,.011,0,.021,0,.032l-.892,2.135Zm6.839,7.241H27.566v-2.595a.584.584,0,1,0-1.168,0v2.595H24.636v-.3a5.421,5.421,0,0,0-1.194-3.405l1.212-2.9,1.856.443a2.888,2.888,0,0,1,2.224,2.818Z" transform="translate(0 -105.437)" style="fill:#fff;stroke:#211932;stroke-width:0.2px;" />
    </g>
    <g transform="translate(12.408 13.506)">
      <path d="M213.457,231.421a.584.584,0,1,0,.171.413A.588.588,0,0,0,213.457,231.421Z" transform="translate(-212.46 -231.25)" style="fill:#fff;stroke:#211932;stroke-width:0.2px;" />
    </g>
    <g transform="translate(9.905 8.493)">
      <path d="M173.3,147.5a.5.5,0,1,0,.147.354A.5.5,0,0,0,173.3,147.5Z" transform="translate(-172.8 -147.32)" style="fill:#211932;stroke:#211932;stroke-width:0.2px;" />
    </g>
    <g transform="translate(8.264 10.515)">
      <path d="M144.925,183.5a.5.5,0,1,0,.147.354A.5.5,0,0,0,144.925,183.5Z" transform="translate(-144.43 -183.32)" style="fill:#211932;stroke:#211932;stroke-width:0.2px;" />
    </g>
    <g transform="translate(19.78 8.493)">
      <path d="M346.925,147.5a.5.5,0,1,0,.147.354A.5.5,0,0,0,346.925,147.5Z" transform="translate(-346.43 -147.32)" style="fill:#211932;stroke:#211932;stroke-width:0.2px;" />
    </g>
    <g transform="translate(21.859 10.515)">
      <path d="M382.925,183.5a.5.5,0,1,0,.147.354A.5.5,0,0,0,382.925,183.5Z" transform="translate(-382.43 -183.32)" style="fill:#211932;stroke:#211932;stroke-width:0.2px;" />
    </g>
    <g transform="translate(18.594 7.343)">
      <path d="M325.925,125.5a.5.5,0,1,0,.147.354A.5.5,0,0,0,325.925,125.5Z" transform="translate(-325.43 -125.32)" style="fill:#211932;stroke:#211932;stroke-width:0.2px;" />
    </g>
    <g transform="translate(10.883 7.343)">
      <path d="M155.925,125.5a.5.5,0,1,0,.147.354A.5.5,0,0,0,155.925,125.5Z" transform="translate(-155.43 -125.32)" style="fill:#211932;stroke:#211932;stroke-width:0.2px;" />
    </g>
    <g transform="translate(14.508 5.115)">
      <path d="M207.457,87.421a.584.584,0,1,0,.171.413A.588.588,0,0,0,207.457,87.421Z" transform="translate(-206.46 -87.25)" style="fill:#211932;stroke:#211932;stroke-width:0.2px;" />
    </g>
    <g transform="translate(11.98 5.115)">
      <path d="M169.457,87.421a.584.584,0,1,0,.171.413A.588.588,0,0,0,169.457,87.421Z" transform="translate(-168.46 -87.25)" style="fill:#211932;stroke:#211932;stroke-width:0.2px;" />
    </g>
    <g transform="translate(17.037 5.115)">
      <path d="M245.457,87.421a.584.584,0,1,0,.171.413A.588.588,0,0,0,245.457,87.421Z" transform="translate(-244.46 -87.25)" style="fill:#211932;stroke:#211932;stroke-width:0.2px;" />
    </g>
    <g transform="translate(12.408 10.928)">
      <path d="M213.457,188.421a.584.584,0,1,0,.171.413A.588.588,0,0,0,213.457,188.421Z" transform="translate(-212.46 -188.25)" style="fill:#fff;stroke:#211932;stroke-width:0.2px;" />
    </g>
  </g>
</svg>
