<svg xmlns="http://www.w3.org/2000/svg" width="136.376" height="91.526" viewBox="0 0 136.376 91.526"><defs><style>.a,.b{fill:#fff;}.a{font-size:17px;font-family:Lato-Light, Lato;font-weight:300;letter-spacing:0.005em;}.c{fill:#ed1558;}</style></defs><g transform="translate(-171.606 -647)"><text class="a" transform="translate(175 661)"><tspan x="0" y="0">by</tspan></text><g transform="translate(823.062 2189.947)"><g transform="translate(-651.456 -1533.517)"><path class="b" d="M-216.56-1496.839l-10.014-1.2a3.741,3.741,0,0,1,1.661,2.391,4.963,4.963,0,0,1,.068.817q.006,6.913,0,13.825a3.453,3.453,0,0,1-3.586,3.6q-6.913.011-13.826,0a3.44,3.44,0,0,1-3.6-3.631q0-6.885,0-13.771a3.434,3.434,0,0,1,3.639-3.647c3.621-.008,7.242,0,10.863,0h.632l0-.079q-2.742-.335-5.484-.67c-1.414-.171-1.8-.779-1.325-2.132-1.173-.278-2.343-.554-3.511-.834a3.2,3.2,0,0,1-2.559-3.986q1.359-6.008,2.81-12a3.127,3.127,0,0,1,3.768-2.368c2.783.6,5.55,1.279,8.324,1.923.123.029.248.048.435.084a1.393,1.393,0,0,1,1.134-1.659,8.334,8.334,0,0,1-1.931-3.8,7.942,7.942,0,0,1,3.707-8.418,7.945,7.945,0,0,1,9.125.673,7.932,7.932,0,0,1-.556,12.7.566.566,0,0,0-.288.7q1.368,6.457,2.679,12.926a6.382,6.382,0,0,1-.039,1.426H-212l3.138-.007h1.905l3.134,0a2.048,2.048,0,0,1,.722,0l3.126.018h2.3v5.441h-12.579v15.633h12.57v5.438H-215.6v-14.38l-.118-.035-5.293,11.679c.431.039.8.061,1.174.109a1.321,1.321,0,0,1,1.221,1.315,1.222,1.222,0,0,1-1.122,1.264,13.143,13.143,0,0,1-1.417.041c-.584.02-1.169.024-1.75.08a1.564,1.564,0,0,1-1.474-.532,1.325,1.325,0,0,1-.066-1.494q3.832-8.453,7.654-16.912C-216.727-1496.446-216.665-1496.6-216.56-1496.839Zm-7.108-11.805c-.827,2.752-1.1,5.572-2.167,8.194,1.43.174,2.881.352,4.331.526,1.76.21,3.52.414,5.279.628.314.038.557,0,.557-.379q0-1.838-.019-3.675a.5.5,0,0,0-.147-.365c-.945-.64-1.892-1.279-2.86-1.883C-220.333-1506.622-221.99-1507.619-223.668-1508.644Zm.489-8.007a3.427,3.427,0,0,1,.6,3.228c-.159.58-.247,1.18-.421,1.754a.511.511,0,0,0,.28.7c1.628.976,3.243,1.975,4.864,2.963.125.076.263.133.47.237l-2.074-9.939h-2.93Z" transform="translate(290.365 1533.517)"/><path class="b" d="M-380.9-1289.357h7.39v-3.135h5.3v29.656H-380.9Zm7.361,5.393h-2.014v15.764h2.014Z" transform="translate(410.589 1318.94)"/><path class="b" d="M212.606-1263.586h5.259v21.115h2.1v-21.109h5.331v26.466H212.606Z" transform="translate(-117.793 1293.205)"/><path class="b" d="M-510.669-1242.429h2.123v-21.129h5.287v26.479h-12.695v-26.476h5.285Z" transform="translate(530.822 1293.18)"/><path class="b" d="M360.334-1254.982h-5.262v-3.114h-2.087v5.207h7.339v15.912H347.633v-8.476h5.311v3.115h2.027v-5.213h-7.354v-15.885h12.718Z" transform="translate(-237.989 1293.071)"/><path class="b" d="M-91.127-956.653h-3.3v-20.6c.129-.009.3-.032.479-.032,1.39,0,2.781.014,4.17-.011a.709.709,0,0,1,.765.514c1.4,3.155,2.817,6.3,4.231,9.447.109.243.222.485.384.839l2.077-4.842c.792-1.846,1.577-3.7,2.387-5.534a.711.711,0,0,1,.472-.395c1.518-.029,3.036-.015,4.554-.011a1.655,1.655,0,0,1,.271.056v20.548h-4.627V-970.1l-.177-.035-5.646,13.9-5.932-13.916-.109.021Z" transform="translate(155.549 1038.335)"/><path class="b" d="M-646.14-1292.51v24.279h7.39v5.352h-12.707v-29.63Z" transform="translate(651.456 1318.956)"/><path class="b" d="M-285.824-956.674c.381-1.125.727-2.16,1.081-3.192,1.923-5.591,3.858-11.178,5.756-16.778a.853.853,0,0,1,1-.7c1.352.042,2.706.023,4.059.007a.553.553,0,0,1,.639.42q3.5,9.94,7.026,19.872c.036.1.059.206.105.369-1.517,0-2.992.01-4.467-.018-.122,0-.29-.235-.351-.394-.511-1.329-1.016-2.66-1.491-4a.66.66,0,0,0-.737-.533q-3.593.033-7.187,0a.61.61,0,0,0-.7.492c-.437,1.354-.924,2.693-1.364,4.046a.5.5,0,0,1-.579.417C-283.926-956.688-284.821-956.674-285.824-956.674Zm9.071-16.595-.123-.01-2.928,8.636h6.151Z" transform="translate(325.945 1038.375)"/><path class="b" d="M-441.142-966.132h4.536c.013.177.035.335.035.493,0,2.176-.008,4.351.011,6.527a.761.761,0,0,1-.455.775,12.838,12.838,0,0,1-4.774,1.311,17.7,17.7,0,0,1-5.992-.234,6.583,6.583,0,0,1-5.261-5.065,19.291,19.291,0,0,1-.072-9.915,6.975,6.975,0,0,1,6.509-5.441,28.291,28.291,0,0,1,8.224.548.79.79,0,0,1,.742.718c.155.891.4,1.766.591,2.6a18.337,18.337,0,0,0-3.156-1.047,20.706,20.706,0,0,0-4.357-.156,3.569,3.569,0,0,0-3.189,2.421,11.167,11.167,0,0,0-.737,3.066,23.294,23.294,0,0,0,.277,6.333,8.569,8.569,0,0,0,.656,1.9,2.907,2.907,0,0,0,3.038,1.794,7.567,7.567,0,0,0,2.927-.608.675.675,0,0,0,.454-.708c-.02-1.554-.008-3.108-.008-4.662Z" transform="translate(475.424 1038.761)"/><path class="b" d="M248.311-962.542c1.272.4,2.485.837,3.731,1.143a10.13,10.13,0,0,0,4.671.075,2.469,2.469,0,0,0,2.081-2.124,7.627,7.627,0,0,0,.015-2.12,2.185,2.185,0,0,0-1.626-1.886c-1.464-.444-2.956-.8-4.417-1.253a17.767,17.767,0,0,1-2.485-.985,3.546,3.546,0,0,1-1.954-2.687,6.591,6.591,0,0,1,.067-3.251,5.134,5.134,0,0,1,3.687-3.36,14.854,14.854,0,0,1,6.031-.376c1.3.118,2.581.463,3.872.7a.641.641,0,0,1,.563.562c.218.934.468,1.861.7,2.789-1.087-.343-2.108-.739-3.164-.981a12.106,12.106,0,0,0-5.327-.072,1.881,1.881,0,0,0-1.394.875c-.674,1.287-.466,2.278.858,2.765,1.52.558,3.115.907,4.65,1.428a16.764,16.764,0,0,1,2.789,1.228,4.235,4.235,0,0,1,2.166,3.314,9.009,9.009,0,0,1-.523,4.683,5.6,5.6,0,0,1-4.493,3.358,19.006,19.006,0,0,1-9.253-.589.784.784,0,0,1-.607-.668C248.767-960.846,248.525-961.7,248.311-962.542Z" transform="translate(-149.444 1040.29)"/><path class="b" d="M116.287-968.221h7.727v2.519c-.217.01-.429.028-.642.028-2.176,0-4.352.015-6.528-.009-.485-.005-.62.135-.611.618.036,1.937.041,3.875.029,5.813,0,.435.132.561.562.559,2.743-.017,5.485-.008,8.228-.008h.688v2.516H111.627V-976.76h13.931v2.463h-9.271Z" transform="translate(-27.894 1037.853)"/><path class="b" d="M495.486-1308.292a5.955,5.955,0,0,1-3.387-.9,4.469,4.469,0,0,1-.821-7.035,6.331,6.331,0,0,1,7.725-.822,4.536,4.536,0,0,1,.146,7.5A6.182,6.182,0,0,1,495.486-1308.292Zm4.019-4.962a7.82,7.82,0,0,0-.118-.81,3.791,3.791,0,0,0-4.357-2.733,3.766,3.766,0,0,0-3.24,5.1,3.746,3.746,0,0,0,3.45,2.217A3.937,3.937,0,0,0,499.505-1313.253Z" transform="translate(-364.685 1341.652)"/><path class="b" d="M524.463-1293.986c.859.543.717,1.544,1.24,2.365-.528.03-.967.078-1.4.065-.112,0-.259-.185-.317-.317-.124-.282-.186-.59-.3-.876-.065-.162-.16-.4-.287-.433a2.986,2.986,0,0,0-1.057-.094c-.066.007-.13.444-.125.681.022,1.19.03,1.19-1.174,1.186a1.764,1.764,0,0,1-.226-.037c-.023-.528-.057-1.065-.068-1.6-.02-.967-.037-1.935-.024-2.9,0-.14.174-.387.286-.4a25.284,25.284,0,0,1,2.83-.181,1.41,1.41,0,0,1,1.459,1.031C525.488-1294.781,525.082-1294.33,524.463-1293.986Zm-2.238-.291a8.015,8.015,0,0,0,1.215-.245.6.6,0,0,0,.322-.482.685.685,0,0,0-.426-.461,5.694,5.694,0,0,0-1.111-.021Z" transform="translate(-392.093 1322.534)"/></g><rect class="c" width="16.037" height="16.218" rx="2" transform="translate(-604.477 -1496.032)"/><rect class="c" width="13.767" height="13.948" rx="2" transform="matrix(0.977, 0.213, -0.213, 0.977, -599.365, -1518.245)"/><rect class="c" width="3.151" height="7.478" transform="translate(-573.086 -1511.109)"/><rect class="c" width="3.151" height="2.216" transform="translate(-568.05 -1505.847)"/><rect class="c" width="3.151" height="3.242" transform="translate(-564.19 -1506.873)"/><circle class="c" cx="5.543" cy="5.543" r="5.543" transform="translate(-587.917 -1531.097)"/></g></g></svg>