<svg xmlns="http://www.w3.org/2000/svg" width="31.348" height="31.348" viewBox="0 0 31.348 31.348">
  <g transform="translate(15.062 22.98)">
    <path fill="#fff" d="M246.612,375.333a.612.612,0,0,0-.612.612v.01a.612.612,0,0,0,1.225,0v-.01A.612.612,0,0,0,246.612,375.333Z" transform="translate(-246 -375.333)"/>
  </g>
  <path fill="#fff" d="M25.348,0H6A6.007,6.007,0,0,0,0,6V25.348a6.007,6.007,0,0,0,6,6h9.674a.612.612,0,0,0,.612-.612V25.991a.612.612,0,0,0-1.225,0v4.133H6a4.781,4.781,0,0,1-4.776-4.776V6A4.781,4.781,0,0,1,6,1.225H25.348A4.781,4.781,0,0,1,30.124,6V25.348a4.781,4.781,0,0,1-4.776,4.776H21.429V19.317h3.55a.612.612,0,0,0,.609-.551l.44-4.375a.612.612,0,0,0-.609-.674h-3.99v-2.3c0-.416.132-.57.489-.57h3.474A.612.612,0,0,0,26,10.238V5.973a.612.612,0,0,0-.612-.612H20.83a5.4,5.4,0,0,0-4.651,2.088,6.444,6.444,0,0,0-1.117,3.725v2.572h-3a.612.612,0,0,0-.612.612V18.7a.612.612,0,0,0,.612.612h3v1.745a.612.612,0,1,0,1.225,0V18.7a.612.612,0,0,0-.612-.612h-3V14.97h3a.612.612,0,0,0,.612-.612V11.173c0-1.38.443-4.588,4.543-4.588h3.95V9.625H21.918A1.645,1.645,0,0,0,20.2,11.42v2.91a.612.612,0,0,0,.612.612h3.926l-.317,3.15H20.817a.612.612,0,0,0-.612.612V30.736a.612.612,0,0,0,.612.612h4.531a6.007,6.007,0,0,0,6-6V6A6.007,6.007,0,0,0,25.348,0Z"/>
  <g transform="translate(2.939 6.276)">
    <path fill="#fff" d="M48.612,102.5a.612.612,0,0,0-.612.612v5.112a.612.612,0,1,0,1.225,0v-5.112A.612.612,0,0,0,48.612,102.5Z" transform="translate(-48 -102.5)"/>
  </g>
  <g transform="translate(2.939 14.044)">
    <path fill="#fff" d="M48.612,229.382a.612.612,0,0,0-.612.612V230a.612.612,0,1,0,1.225,0v-.007A.612.612,0,0,0,48.612,229.382Z" transform="translate(-48 -229.382)"/>
  </g>
</svg>