<svg xmlns="http://www.w3.org/2000/svg" width="30.318" height="31.416" viewBox="0 0 30.318 31.416"><defs></defs><g transform="translate(-8.941)"><g transform="translate(8.941)"><g transform="translate(0)"><path class="a" d="M225.844,76.34a2.318,2.318,0,1,0-2.318-2.318A2.321,2.321,0,0,0,225.844,76.34Zm0-3.717a1.4,1.4,0,1,1-1.4,1.4A1.4,1.4,0,0,1,225.844,72.623Z" transform="translate(-210.359 -67.303)"/><path class="a" d="M15.687,26.631a14.452,14.452,0,0,1-4.259-5A14.231,14.231,0,0,1,24.1.92a13.957,13.957,0,0,1,6.374,1.527.46.46,0,0,0,.417-.821A14.868,14.868,0,0,0,24.1,0a15.145,15.145,0,0,0-13.49,22.055,15.378,15.378,0,0,0,4.532,5.317.46.46,0,0,0,.546-.741Z" transform="translate(-8.941 0)"/><path class="a" d="M156.6,66.863a15.12,15.12,0,0,0-2.9-22,.46.46,0,0,0-.536.748,14.2,14.2,0,0,1,2.725,20.66,5.166,5.166,0,0,0-1.11,2.334,5.5,5.5,0,0,0,.074,2.7.926.926,0,0,1-.222.941.9.9,0,0,1-.908.242,12.676,12.676,0,0,1-2.79-1.2,3.17,3.17,0,0,0-2.407-.321,14.3,14.3,0,0,1-3.752.46,14.014,14.014,0,0,1-6.437-1.622.46.46,0,0,0-.428.815,14.925,14.925,0,0,0,6.856,1.728,15.222,15.222,0,0,0,3.994-.49,2.256,2.256,0,0,1,1.712.227,13.609,13.609,0,0,0,3,1.286,1.868,1.868,0,0,0,.52.075,1.808,1.808,0,0,0,1.3-.56,1.856,1.856,0,0,0,.438-1.863,4.449,4.449,0,0,1-.046-2.247A4.245,4.245,0,0,1,156.6,66.863Z" transform="translate(-129.765 -42.033)"/><path class="a" d="M183.8,178.107v.462a1.6,1.6,0,0,0,1.595,1.595h6.323a1.6,1.6,0,0,0,1.595-1.595v-.462a1.6,1.6,0,0,0-1.595-1.595h-.843v-8.839a1.568,1.568,0,0,0-2.185-1.442,6.955,6.955,0,0,1-2.4.553l-1.451.072a1.1,1.1,0,0,0-1.043,1.1v.907a1.1,1.1,0,0,0,1.1,1.1h1.273a.068.068,0,0,1,.068.068v6.488h-.843A1.6,1.6,0,0,0,183.8,178.107Zm2.9-.674a.46.46,0,0,0,.46-.46v-6.948a.989.989,0,0,0-.988-.988H184.9a.177.177,0,0,1-.177-.177v-.907a.177.177,0,0,1,.168-.177l1.45-.072a7.874,7.874,0,0,0,2.712-.626.648.648,0,0,1,.9.6v9.3a.46.46,0,0,0,.46.46h1.3a.675.675,0,0,1,.674.674v.462a.675.675,0,0,1-.674.674h-6.323a.675.675,0,0,1-.674-.674v-.462a.675.675,0,0,1,.674-.674Z" transform="translate(-173.07 -155.912)"/></g></g></g></svg>