<svg xmlns="http://www.w3.org/2000/svg" width="31.348" height="31.348" viewBox="0 0 31.348 31.348"><defs><style>.a{fill:#fff;}</style></defs><path class="a" d="M22.164,0H9.184A9.194,9.194,0,0,0,0,9.184v12.98a9.194,9.194,0,0,0,9.184,9.184h12.98a9.194,9.194,0,0,0,9.184-9.184V9.184A9.194,9.194,0,0,0,22.164,0Zm7.96,22.164a7.969,7.969,0,0,1-7.96,7.96H9.184a7.969,7.969,0,0,1-7.96-7.96V9.184a7.969,7.969,0,0,1,7.96-7.96h12.98a7.969,7.969,0,0,1,7.96,7.96Z"/><g transform="translate(2.694 2.694)"><path class="a" d="M63.47,44H50.49A6.5,6.5,0,0,0,44,50.49V63.47a6.5,6.5,0,0,0,6.49,6.49h3.735a.612.612,0,1,0,0-1.225H50.49a5.272,5.272,0,0,1-5.266-5.266V50.49a5.272,5.272,0,0,1,5.266-5.266H63.47a5.272,5.272,0,0,1,5.266,5.266V63.47a5.272,5.272,0,0,1-5.266,5.266H59.776a.612.612,0,1,0,0,1.225H63.47a6.5,6.5,0,0,0,6.49-6.49V50.49A6.5,6.5,0,0,0,63.47,44Z" transform="translate(-44 -44)"/></g><g transform="translate(15.062 27.43)"><path class="a" d="M247.045,448.179a.612.612,0,1,0,.179.433A.617.617,0,0,0,247.045,448.179Z" transform="translate(-246 -448)"/></g><g transform="translate(9.681 9.34)"><path class="a" d="M159.2,152.741a.612.612,0,0,0-.865-.028l-.027.026a.612.612,0,1,0,.84.891l.024-.022A.612.612,0,0,0,159.2,152.741Z" transform="translate(-158.115 -152.547)"/></g><g transform="translate(7.225 7.225)"><path class="a" d="M126.449,118a8.474,8.474,0,0,0-3.871.937.612.612,0,1,0,.562,1.088,7.144,7.144,0,0,1,3.309-.8,7.221,7.221,0,1,1-6.287,3.663.612.612,0,0,0-1.065-.6A8.45,8.45,0,1,0,126.449,118Z" transform="translate(-118 -118)"/></g><g transform="translate(10.164 10.164)"><path class="a" d="M171.51,166a5.51,5.51,0,1,0,5.51,5.51A5.517,5.517,0,0,0,171.51,166Zm0,9.8a4.286,4.286,0,1,1,4.286-4.286A4.291,4.291,0,0,1,171.51,175.8Z" transform="translate(-166 -166)"/></g><g transform="translate(21.384 5.311)"><path class="a" d="M351.577,86.75a2.327,2.327,0,1,0,2.327,2.327A2.329,2.329,0,0,0,351.577,86.75Zm0,3.429a1.1,1.1,0,1,1,1.1-1.1A1.1,1.1,0,0,1,351.577,90.179Z" transform="translate(-349.25 -86.75)"/></g></svg>