<svg xmlns="http://www.w3.org/2000/svg" width="31.45" height="31.454" viewBox="0 0 31.45 31.454"><defs><style>.a{fill:#fff;}</style></defs><g transform="translate(-0.027)"><g transform="translate(6.707)"><path class="a" d="M117.8,0a9.037,9.037,0,0,0-7.017,14.732q.015.023.031.044l6.5,8.329a.614.614,0,0,0,.968,0l6.533-8.373.007-.009A9.037,9.037,0,0,0,117.8,0Zm6.056,13.966-.022.029L117.8,21.729l-5.973-7.652a.616.616,0,0,0-.05-.07,7.809,7.809,0,1,1,12.079-.041Z" transform="translate(-108.767)"/></g><g transform="translate(10.216 3.643)"><path class="a" d="M176.714,63.254a.614.614,0,0,0-1.178.348,4.3,4.3,0,1,1-2.9-2.9.614.614,0,0,0,.349-1.178,5.529,5.529,0,1,0,3.729,3.732Z" transform="translate(-165.884 -59.293)"/></g><g transform="translate(18.605 5.082)"><path class="a" d="M303.5,82.921l-.011-.011a.614.614,0,1,0-.869.869l.011.011a.614.614,0,0,0,.869-.869Z" transform="translate(-302.436 -82.73)"/></g><g transform="translate(0.027 17.581)"><path class="a" d="M25.189,287.363a.614.614,0,0,0-.384,1.167c3.409,1.122,5.444,2.8,5.444,4.5,0,1.432-1.477,2.881-4.052,3.975a27.563,27.563,0,0,1-10.445,1.832A27.563,27.563,0,0,1,5.307,297c-2.575-1.094-4.052-2.543-4.052-3.975,0-1.2,1.034-2.417,2.912-3.43a22.321,22.321,0,0,1,7.913-2.182.614.614,0,1,0-.132-1.221,23.551,23.551,0,0,0-8.364,2.322C1.257,289.77.027,291.33.027,293.026c0,1.977,1.7,3.79,4.8,5.106a28.8,28.8,0,0,0,10.925,1.929,28.8,28.8,0,0,0,10.925-1.929c3.1-1.315,4.8-3.128,4.8-5.106C31.477,290.742,29.185,288.678,25.189,287.363Z" transform="translate(-0.027 -286.188)"/></g><g transform="translate(21.621 18.003)"><path class="a" d="M352.288,293.064l-.021,0a.614.614,0,0,0-.243,1.2l.021,0a.622.622,0,0,0,.122.012.614.614,0,0,0,.121-1.217Z" transform="translate(-351.531 -293.048)"/></g><g transform="translate(9.89 20.21)"><path class="a" d="M161.795,329.475a.614.614,0,0,0-.723-.482l-.042.01a.614.614,0,1,0,.765.472Z" transform="translate(-160.577 -328.982)"/></g><g transform="translate(6.423 19.703)"><path class="a" d="M115.522,320.718a.614.614,0,0,0-.1,1.225c4.011.314,6.147,1.487,6.147,2.213,0,.35-.558.945-2.132,1.469a22.164,22.164,0,0,1-11.936,0c-1.574-.524-2.132-1.119-2.132-1.469,0-.32.434-.724,1.161-1.08a.614.614,0,1,0-.54-1.1c-1.529.748-1.85,1.6-1.85,2.183,0,2.309,4.693,3.517,9.329,3.517s9.329-1.208,9.329-3.517C122.8,322.039,118.88,320.981,115.522,320.718Z" transform="translate(-104.143 -320.716)"/></g></g></svg>