<svg xmlns="http://www.w3.org/2000/svg" width="24.925" height="31.454" viewBox="0 0 24.925 31.454"><defs><style>.a{fill:#fff;}</style></defs><g transform="translate(4.324 0)"><path class="a" d="M11.69,25.506,7.563,21.549a2.738,2.738,0,0,0-3.536-.239l-.006,0L4,21.328a.071.071,0,0,1-.056.014.053.053,0,0,1-.038-.026A13.926,13.926,0,0,1,2.063,11.065a.047.047,0,0,1,.023-.033.062.062,0,0,1,.051-.005l.028.008A2.742,2.742,0,0,0,5.408,9.572l2.7-5.594A2.043,2.043,0,0,0,7.7,1.635a5.338,5.338,0,0,0-.747-.625A5.619,5.619,0,0,0-.7,2.186c-.114.148-.219.3-.321.461v0a13.756,13.756,0,0,0-.823,1.392l-.058.109A22.253,22.253,0,0,0-3.914,9.181a23.1,23.1,0,0,0,.153,9.411A19.85,19.85,0,0,0,.388,27a.62.62,0,0,0,.948-.8,18.615,18.615,0,0,1-3.889-7.887,21.852,21.852,0,0,1-.143-8.9A21.447,21.447,0,0,1-.817,4.738l.06-.112c.239-.446.491-.875.767-1.3l0-.007q.125-.2.266-.382a4.38,4.38,0,0,1,5.969-.911,4.067,4.067,0,0,1,.576.481l.007.008a.8.8,0,0,1,.161.924l-2.7,5.594a1.508,1.508,0,0,1-1.777.812l-.023-.007a1.295,1.295,0,0,0-1.641.973A15.166,15.166,0,0,0,2.86,21.976a1.3,1.3,0,0,0,.862.584,1.317,1.317,0,0,0,1.027-.244l.017-.013a1.5,1.5,0,0,1,1.94.139L10.833,26.4a1.57,1.57,0,0,1,.183,1.877,4.233,4.233,0,0,1-2.9,1.875,4.364,4.364,0,0,1-3.236-.722.62.62,0,0,0-.707,1.018,5.593,5.593,0,0,0,3.2,1.007,5.687,5.687,0,0,0,.95-.08,5.469,5.469,0,0,0,3.765-2.48l.014-.025a2.81,2.81,0,0,0-.414-3.364Zm0,0"/><path class="a" d="M217.217,114.4a6.67,6.67,0,0,0-6.6,7.631l-1.105,3.59a.63.63,0,0,0,.56.8l3.426.179a6.667,6.667,0,1,0,3.717-12.2Zm0,12.095a5.39,5.39,0,0,1-3.149-1.006.618.618,0,0,0-.327-.114l-2.808-.147.914-2.967a4.476,4.476,0,0,0-.057-1.192,5.428,5.428,0,1,1,5.427,5.428Zm0,0" transform="translate(-203.284 -108.768)"/><path class="a" d="M308.78,240.762a.62.62,0,1,0,.618.647A.627.627,0,0,0,308.78,240.762Zm0,0" transform="translate(-297.096 -228.906)"/><path class="a" d="M122.46,565.2a.62.62,0,1,0,.618.647.627.627,0,0,0-.618-.647Zm0,0" transform="translate(-119.951 -537.366)"/><path class="a" d="M358.284,240.762a.62.62,0,1,0,.618.647A.626.626,0,0,0,358.284,240.762Zm0,0" transform="translate(-344.162 -228.906)"/><path class="a" d="M407.772,240.762a.62.62,0,1,0,.618.647A.627.627,0,0,0,407.772,240.762Zm0,0" transform="translate(-391.214 -228.906)"/></g></svg>