<svg xmlns="http://www.w3.org/2000/svg" width="35.927" height="39.709" viewBox="0 0 35.927 39.709"><defs><style>.a,.b{fill:#fff;}.b{fill-rule:evenodd;}</style></defs><g transform="translate(-2.5 -1.5)"><path class="a" d="M19.869,1.71a.946.946,0,0,1,1.189,1.471L18.884,4.938h1.58A18.136,18.136,0,1,1,2.5,23.074,18.165,18.165,0,0,1,10.579,7.928.945.945,0,1,1,11.628,9.5a16.28,16.28,0,0,0,8.836,29.817,16.246,16.246,0,0,0,0-32.489h-1.58l2.175,1.757a.946.946,0,0,1-1.189,1.471L15.615,6.619a.946.946,0,0,1,0-1.471Z" transform="translate(0 0)"/><path class="b" d="M11.036,8.707A.945.945,0,0,0,9.5,9.445V24.573a.945.945,0,0,0,1.536.738l9.455-7.564a.945.945,0,0,0,0-1.477Zm.355,13.9v0Z" transform="translate(6.236 6.236)"/></g></svg>