<svg xmlns="http://www.w3.org/2000/svg" width="27.118" height="30.235" viewBox="0 0 27.118 30.235"><defs><style>.a{fill:#fff;}</style></defs><g transform="translate(-26.385 0)"><g transform="translate(26.385 0)"><g transform="translate(0 0)"><path class="a" d="M53.136,28.932A2.217,2.217,0,0,1,51.829,26.9V7.054a.443.443,0,1,0-.886,0V26.9a2.98,2.98,0,0,0,1.209,2.449H34.127a2.511,2.511,0,0,1-2.508-2.508V2.617A2.611,2.611,0,0,0,30.963.886H48.436a2.511,2.511,0,0,1,2.508,2.508V5.016a.443.443,0,1,0,.886,0V3.394A3.4,3.4,0,0,0,48.436,0H29a2.62,2.62,0,0,0-2.617,2.617v1.62a1,1,0,0,0,1,1h3.351V26.841a3.4,3.4,0,0,0,3.394,3.394H52.81a.692.692,0,0,0,.326-1.3ZM30.733,4.348H27.382a.111.111,0,0,1-.111-.111V2.617a1.731,1.731,0,0,1,3.462,0Z" transform="translate(-26.385 0)"/><path class="a" d="M212.5,60.259a.443.443,0,1,0,0-.886h-7.9a.443.443,0,0,0,0,.886Z" transform="translate(-193.655 -55.866)"/><path class="a" d="M168.132,127.276H154.283a.443.443,0,1,0,0,.886h13.849a.443.443,0,0,0,0-.886Z" transform="translate(-146.311 -119.758)"/><path class="a" d="M168.132,164.589H154.283a.443.443,0,1,0,0,.886h13.849a.443.443,0,0,0,0-.886Z" transform="translate(-146.311 -154.867)"/><path class="a" d="M168.575,202.344a.443.443,0,0,0-.443-.443H154.283a.443.443,0,1,0,0,.886h13.849A.443.443,0,0,0,168.575,202.344Z" transform="translate(-146.311 -189.974)"/><path class="a" d="M162.7,239.657a.443.443,0,0,0-.443-.443h-7.97a.443.443,0,1,0,0,.886h7.97A.443.443,0,0,0,162.7,239.657Z" transform="translate(-146.311 -225.083)"/><path class="a" d="M223.271,296.466a.583.583,0,0,0,.575.01l1.215-.666,1.213.67a.58.58,0,0,0,.861-.507l.008-3.224a3.358,3.358,0,1,0-5.452-2.625.443.443,0,1,0,.886,0,2.473,2.473,0,1,1,.583,1.6.443.443,0,0,0-.677.572,3.372,3.372,0,0,0,.51.488l-.007,3.187A.583.583,0,0,0,223.271,296.466Zm.608-3.2a3.348,3.348,0,0,0,2.377-.013l-.005,2.2-.908-.5a.578.578,0,0,0-.56,0l-.909.5Z" transform="translate(-210.154 -269.825)"/></g></g></g></svg>